<svg id="logo-issi" xmlns="http://www.w3.org/2000/svg" xmlns:xlink="http://www.w3.org/1999/xlink" width="77.104" height="63.685" viewBox="0 0 77.104 63.685">
  <defs>
    <clipPath id="clip-path">
      <rect id="사각형_7" data-name="사각형 7" width="77.104" height="63.685" fill="none"></rect>
    </clipPath>
  </defs>
  <g id="그룹_5" data-name="그룹 5" clip-path="url('#clip-path')">
    <path id="패스_7" data-name="패스 7" d="M69.023,41.856c0-1.245-.053-2.4-.088-2.707-.035-.271-.37-.289-.6-.325-.053-.018-.035-.289,0-.289.352.018.7.018,1.056.018-.035.722-.123,1.931-.123,3.356v.505c0,.956.088,2.256.158,3.122a6.435,6.435,0,0,0-1.021.018c-.035,0-.053-.271,0-.289.246-.018.546-.108.563-.289.053-.505.053-1.426.053-2.454Zm.916.018c0-1.534-.106-2.562-.141-3.3h.458c.141-.018.176.036.194.162,0,.289-.018.993-.018,1.408.176-.92.7-1.642,1.461-1.642.88,0,1.215.812,1.215,1.967,0,.668-.018,1.281-.018,2.039v.487a24.512,24.512,0,0,0,.141,2.562,4.978,4.978,0,0,0-.9.018c-.035,0-.053-.271,0-.289.229-.018.423-.09.44-.271a19.543,19.543,0,0,0,.07-2.129v-.938c0-2.111-.246-3.05-1.021-3.05-.651,0-1.074.668-1.285,1.588a11.75,11.75,0,0,0-.088,1.534v.668A17.039,17.039,0,0,0,70.537,45c.035.217.211.271.44.289.07,0,.053.289,0,.271-.37-.018-.775-.018-1.2-.018.035-.541.141-1.642.141-3v-.668Zm3.821.451c0-2.472-.211-3.338-.757-3.7-.035-.018.018-.072.088-.072.88.144,1.25.938,1.25,2.184,0,.74-.07,1.534-.07,2.274a13.647,13.647,0,0,0,.106,1.967c.035.235.317.289.546.307.07.018.053.289,0,.289-.423-.018-.863-.018-1.285-.018.053-1.047.106-1.859.106-2.6v-.632Z" transform="translate(-56.277 -31.552)"></path>
    <path id="패스_8" data-name="패스 8" d="M108.189,28.235c-.088.632-.158,2.274-.158,3.1V33.92c0,1.985.37,2.49.863,2.707.07.018-.053.072-.141.054-.6-.126-1.021-.722-1.021-2.039,0-1.065.07-2.021.07-2.905v-1.57c0-.072-.035-.144-.106-.144-.088,0-.528.036-.616.036-.035.018-.088-.108-.088-.271,0-.072.018-.09.07-.09h.616a.1.1,0,0,0,.106-.108c0-.289-.018-.686-.035-.92a.353.353,0,0,1,.106-.235Zm1-.6c.07-.036.106,0,.106.126-.018.343-.035.956-.053,1.787,0,.072.035.126.158.126.053,0,1.268-.018,1.444-.018.035,0,.053.054.053.09,0,.18-.088.307-.176.307-.07,0-1.285-.018-1.373-.036s-.106.072-.106.18v3.176c0,2.508.387,3,1,3a.93.93,0,0,0,.634-.217c.106-.072.106.289.035.343a1.446,1.446,0,0,1-.88.235c-.986,0-1.373-.794-1.373-2.292,0-.974.053-1.75.053-2.761v-.9c0-1.011-.106-2.238-.123-2.707Z" transform="translate(-88.154 -22.641)"></path>
    <path id="패스_9" data-name="패스 9" d="M130.692,41.891c0-2.021.792-3.194,1.585-3.465.07-.018.176.018.123.054-.722.361-1.3,1.534-1.3,3.411,0,1.895.722,3.086,1.461,3.429.053.018-.07.108-.141.072-.828-.307-1.725-1.5-1.725-3.5m1.8-.054c0,2.129.651,3.32,1.866,3.32a1.674,1.674,0,0,0,1.62-1.48c.018-.09.211-.09.211-.018a2.435,2.435,0,0,1-.088.938c-.106.325-.475.83-1.8.83-1.743,0-2.518-1.426-2.518-3.591,0-2.057.651-3.537,1.866-3.537,1.127,0,1.532,1.48,1.549,3.519h-2.712Zm2.1-.271c.141,0,.194-.072.194-.235-.018-1.462-.282-2.671-1.039-2.671-.863,0-1.215,1.227-1.25,2.905Zm1.232.307c.088-1.678-.264-2.923-.968-3.375-.07-.054.053-.09.106-.072.986.307,1.532,1.642,1.532,3.23,0,.162-.053.235-.123.235h-.546Z" transform="translate(-107.681 -31.389)"></path>
    <path id="패스_10" data-name="패스 10" d="M166.623,41.648c0-1.137-.053-2.274-.088-2.6-.035-.271-.352-.289-.6-.325-.053,0-.035-.271,0-.271.352.018.7.018,1.056.018-.053.83-.123,1.949-.123,3.194v.686c0,.938.07,2.238.158,3.122a6.215,6.215,0,0,0-1,.018c-.035,0-.053-.271,0-.289.264,0,.528-.108.546-.325a25.093,25.093,0,0,0,.07-2.6v-.632Zm.916.108c0-1.534-.088-2.544-.141-3.266l.511-.018c.088,0,.158.072.158.2,0,.289-.035,1.209-.035,1.768.158-1.047.81-2.039,1.708-2.039a.663.663,0,0,1,.7.505,1.942,1.942,0,0,1-.018.722c-.018.054-.176.072-.194,0-.088-.343-.3-.632-.669-.632-.669,0-1.215.812-1.391,1.7a6.955,6.955,0,0,0-.106,1.281v.668c0,.83.053,1.877.088,2.2.035.235.3.307.687.343.07,0,.053.271,0,.271-.458-.018-.933-.018-1.444-.018.053-.65.141-1.7.141-3Z" transform="translate(-136.692 -31.471)"></path>
    <path id="패스_11" data-name="패스 11" d="M193.523,41.856c0-1.245-.07-2.4-.088-2.707-.035-.271-.37-.289-.6-.325-.053-.018-.035-.289,0-.289.352.018.7.018,1.056.018-.035.722-.123,1.931-.123,3.356v.505c0,.956.088,2.256.158,3.122a6.435,6.435,0,0,0-1.021.018c-.035,0-.053-.271,0-.289.246-.018.546-.108.563-.289.053-.505.07-1.426.07-2.454v-.668Zm.916.018c0-1.534-.106-2.562-.141-3.3h.458c.141-.018.176.036.194.162,0,.289-.018.993-.018,1.408.176-.92.7-1.642,1.461-1.642.88,0,1.215.812,1.215,1.967,0,.668-.018,1.281-.018,2.039v.487a24.514,24.514,0,0,0,.141,2.562,4.978,4.978,0,0,0-.9.018c-.035,0-.053-.271,0-.289.229-.018.423-.09.44-.271a15.783,15.783,0,0,0,.07-2.129v-.938c0-2.111-.247-3.05-1.021-3.05-.651,0-1.074.668-1.285,1.588a9.291,9.291,0,0,0-.088,1.534v.668a17.04,17.04,0,0,0,.088,2.31c.035.217.211.271.44.289.053,0,.053.289,0,.271-.37-.018-.775-.018-1.2-.018.035-.541.141-1.642.141-3v-.668Zm3.821.451c0-2.472-.211-3.338-.757-3.7-.035-.018.018-.072.088-.072.88.144,1.25.938,1.25,2.184,0,.74-.07,1.534-.07,2.274a13.65,13.65,0,0,0,.106,1.967c.035.235.317.289.546.307.053.018.053.289,0,.289-.423-.018-.863-.018-1.285-.018.07-1.047.106-1.859.106-2.6v-.632Z" transform="translate(-158.856 -31.552)"></path>
    <path id="패스_12" data-name="패스 12" d="M232.992,43.626a2,2,0,0,1,1.5-2.165c.053,0,.088.072.035.072A2.042,2.042,0,0,0,233.4,43.59a2.068,2.068,0,0,0,.986,2.057c.035.018,0,.072-.035.072a1.926,1.926,0,0,1-1.356-2.093m4.014,2.093c-.053,0-.088-.036-.088-.126-.018-.126-.018-.379-.035-.614a1.214,1.214,0,0,1-1.215.83c-1,0-1.585-.884-1.585-2.147,0-1.426.792-2.238,1.831-2.238a1.51,1.51,0,0,1,.916.217v-.289c0-1.3-.387-2.382-1.409-2.382a1.719,1.719,0,0,0-1.62,1.642c-.018.072-.194.072-.211,0a2.854,2.854,0,0,1,0-.866c.088-.487.616-1.047,1.831-1.047,1.285,0,1.69.83,1.69,2.238,0,.722-.053,1.371-.053,2.093a18.443,18.443,0,0,0,.176,2.725h-.229Zm-.158-2.49c0-.577-.018-.993-.035-1.191a.958.958,0,0,0-.792-.361c-.757,0-1.215.758-1.215,1.967,0,1.029.335,1.8,1.021,1.8a.983.983,0,0,0,.951-.83,9.358,9.358,0,0,0,.07-1.39m.916-1.624c0-1.66-.211-2.454-.792-2.8-.053-.036,0-.09.106-.072.951.162,1.285.974,1.285,2.184,0,.812-.053,1.48-.053,2.111a15.784,15.784,0,0,0,.106,2.075c.053.289.335.325.546.343.07.018.053.289-.018.289-.387-.018-.845-.018-1.25-.018q.053-1.6.053-2.6V41.605Z" transform="translate(-191.969 -31.716)"></path>
    <path id="패스_13" data-name="패스 13" d="M268.789,28.235c-.088.632-.158,2.274-.158,3.1V33.92c0,1.985.37,2.49.863,2.707.053.018-.053.072-.141.054-.6-.126-1.021-.722-1.021-2.039,0-1.065.07-2.021.07-2.905v-1.57c0-.072-.035-.144-.106-.144-.088,0-.528.036-.616.036-.035.018-.088-.108-.088-.271,0-.072.018-.09.07-.09h.616a.1.1,0,0,0,.106-.108c0-.289-.018-.686-.035-.92a.353.353,0,0,1,.106-.235Zm.986-.6c.053-.036.106,0,.106.126-.018.343-.035.956-.053,1.787,0,.072.035.126.158.126.053,0,1.268-.018,1.444-.018.035,0,.053.054.053.09,0,.18-.088.307-.176.307-.07,0-1.285-.018-1.373-.036s-.106.072-.106.18v3.176c0,2.508.387,3,1,3a.93.93,0,0,0,.634-.217c.106-.072.106.289.035.343a1.446,1.446,0,0,1-.88.235c-.986,0-1.373-.794-1.373-2.292,0-.974.07-1.75.07-2.761v-.9c0-1.011-.106-2.238-.123-2.707Z" transform="translate(-220.477 -22.641)"></path>
    <path id="패스_14" data-name="패스 14" d="M291.693,28.859c0-1.1-.07-2.292-.088-2.544-.035-.307-.37-.343-.6-.361-.053,0-.053-.271,0-.271.352.018.7.018,1.039.018-.053.722-.123,1.931-.123,3.194v.686c0,.956.088,2.256.158,3.122a6.4,6.4,0,0,0-1.021.018c-.053,0-.053-.271,0-.271.229-.018.546-.072.581-.361.035-.451.035-1.371.035-2.544v-.686Zm.511-4.674a.65.65,0,0,1-.687-.722.612.612,0,0,1,.511-.668c.035,0,.053.036.018.072a.828.828,0,0,0-.176.577c0,.325.176.523.352.523.229,0,.352-.253.352-.541a.863.863,0,0,0-.158-.559c-.018-.036-.018-.072.018-.072a.644.644,0,0,1,.757.632c0,.523-.335.758-.986.758m.916,5.5c0,.993.035,1.949.088,2.364.018.289.37.343.6.361.07.018.07.289,0,.289-.475-.018-.916-.018-1.338-.018.035-.541.141-1.642.141-3v-.848c0-1.516-.088-2.418-.141-3.14l.546-.018c.141,0,.176.054.176.18-.018.632-.053,1.913-.053,2.725v1.1Z" transform="translate(-239.736 -18.682)"></path>
    <path id="패스_15" data-name="패스 15" d="M309.292,41.973c0-1.967.792-3.14,1.567-3.483.106-.054.211.018.141.072-.775.415-1.3,1.678-1.3,3.411,0,1.75.528,3,1.3,3.429.07.036-.07.09-.141.054-.775-.325-1.567-1.516-1.567-3.483m2.958,3.573c-1.2,0-1.866-1.7-1.866-3.573s.669-3.573,1.884-3.573,1.884,1.7,1.884,3.573-.669,3.573-1.9,3.573m.176-.343c.845,0,1.32-1.534,1.32-3.212s-.475-3.212-1.338-3.212c-.88,0-1.32,1.534-1.32,3.212.018,1.66.458,3.212,1.338,3.212m1.127.217c.775-.433,1.3-1.7,1.3-3.429,0-1.75-.528-3-1.3-3.411-.053-.036.053-.09.141-.072.951.289,1.831,1.444,1.831,3.483s-.88,3.194-1.831,3.483c-.088.036-.211-.018-.141-.054" transform="translate(-254.835 -31.471)"></path>
    <path id="패스_16" data-name="패스 16" d="M347.623,41.856c0-1.245-.053-2.4-.088-2.707-.035-.271-.37-.289-.6-.325-.053-.018-.035-.289,0-.289.352.018.7.018,1.056.018-.035.722-.123,1.931-.123,3.356v.505c0,.956.088,2.256.158,3.122a6.435,6.435,0,0,0-1.021.018c-.035,0-.053-.271,0-.289.246-.018.546-.108.563-.289.053-.505.053-1.426.053-2.454Zm.916.018c0-1.534-.106-2.562-.141-3.3h.458c.141-.018.176.036.194.162,0,.289-.018.993-.018,1.408.176-.92.7-1.642,1.461-1.642.88,0,1.215.812,1.215,1.967,0,.668-.018,1.281-.018,2.039v.487a24.52,24.52,0,0,0,.141,2.562,4.979,4.979,0,0,0-.9.018c-.035,0-.053-.271,0-.289.229-.018.423-.09.44-.271a15.783,15.783,0,0,0,.07-2.129v-.938c0-2.111-.246-3.05-1.021-3.05-.651,0-1.074.668-1.285,1.588a11.756,11.756,0,0,0-.088,1.534v.668a17.045,17.045,0,0,0,.088,2.31c.035.217.211.271.44.289.07,0,.053.289,0,.271-.37-.018-.775-.018-1.2-.018.035-.541.141-1.642.141-3v-.668Zm3.821.451c0-2.472-.211-3.338-.757-3.7-.035-.018.018-.072.088-.072.88.144,1.25.938,1.25,2.184,0,.74-.07,1.534-.07,2.274a13.647,13.647,0,0,0,.106,1.967c.035.235.317.289.546.307.07.018.053.289,0,.289-.423-.018-.863-.018-1.285-.018.053-1.047.106-1.859.106-2.6v-.632Z" transform="translate(-285.823 -31.552)"></path>
    <path id="패스_17" data-name="패스 17" d="M387.092,43.626a2,2,0,0,1,1.5-2.165c.053,0,.088.072.035.072A2.042,2.042,0,0,0,387.5,43.59a2.068,2.068,0,0,0,.986,2.057c.035.018,0,.072-.035.072a1.926,1.926,0,0,1-1.356-2.093m4.014,2.093c-.053,0-.088-.036-.088-.126-.018-.126-.018-.379-.035-.614a1.214,1.214,0,0,1-1.215.83c-1,0-1.585-.884-1.585-2.147,0-1.426.792-2.238,1.831-2.238a1.51,1.51,0,0,1,.916.217v-.289c0-1.3-.387-2.382-1.409-2.382a1.719,1.719,0,0,0-1.62,1.642c-.018.072-.194.072-.211,0a2.855,2.855,0,0,1,0-.866c.088-.487.616-1.047,1.831-1.047,1.285,0,1.69.83,1.69,2.238,0,.722-.053,1.371-.053,2.093a18.443,18.443,0,0,0,.176,2.725h-.229Zm-.158-2.49c0-.577-.018-.993-.035-1.191a.958.958,0,0,0-.792-.361c-.757,0-1.215.758-1.215,1.967,0,1.029.335,1.8,1.021,1.8a.983.983,0,0,0,.951-.83,9.364,9.364,0,0,0,.07-1.39m.916-1.624c0-1.66-.211-2.454-.792-2.8-.053-.036,0-.09.106-.072.951.162,1.285.974,1.285,2.184,0,.812-.053,1.48-.053,2.111a15.784,15.784,0,0,0,.106,2.075c.053.289.335.325.546.343.053.018.053.289-.018.289-.387-.018-.845-.018-1.25-.018.035-1.065.07-1.931.07-2.6Z" transform="translate(-318.936 -31.716)"></path>
    <path id="패스_18" data-name="패스 18" d="M422.222,8.066c0,1.949.07,3.97.158,5.937a6.538,6.538,0,0,0-1.039.018c-.053,0-.053-.379,0-.4.229-.018.563-.09.581-.487.035-.758.053-2.941.053-4.584V6.009c0-2.165-.035-3.97-.106-5.161-.018-.343-.282-.415-.634-.433C421.183.4,421.2,0,421.236,0a7.268,7.268,0,0,0,1.092.018c-.07,2.292-.123,4.169-.123,6.009V8.066Zm1.2,1.047c0,1.606.053,3.447.088,3.988.018.343.246.433.6.523.053.018.053.4,0,.4A11.3,11.3,0,0,0,422.768,14c.053-1.371.141-3.248.141-5.775V5.991c0-1.931-.07-3.97-.141-5.955h.528c.141,0,.211.126.194.379-.018,1.39-.07,4.006-.07,5.7Z" transform="translate(-347.041)"></path>
    <path id="패스_19" data-name="패스 19" d="M114.092,120.557c0-2.49,1.268-4.1,2.395-4.349.088-.018.246.036.176.072-1.109.415-2.06,2.039-2.06,4.277,0,2.454.933,3.808,1.919,4.295.088.036-.07.108-.176.072-1.074-.343-2.254-1.7-2.254-4.367m4.472,4.457c-1.937,0-3.028-1.768-3.028-4.457,0-2.508,1.162-4.457,3.169-4.457,1.356,0,1.778.668,1.866,1.191a3.781,3.781,0,0,1-.018,1.191c-.018.108-.246.108-.264.018-.176-.993-.651-2-1.62-1.985-1.391,0-2.218,1.895-2.2,4.078,0,2.274.757,4.078,2.166,4.078.986,0,1.461-.83,1.655-1.678.035-.126.264-.108.282,0a2.923,2.923,0,0,1-.123,1.191c-.194.4-.6.83-1.884.83" transform="translate(-94.004 -95.149)"></path>
    <path id="패스_20" data-name="패스 20" d="M154.575,120.939c0,2.761.4,3.826,1.162,4.223.088.054-.035.144-.158.108-.81-.253-1.356-1.065-1.356-2.851,0-.794.053-1.66.053-2.49a24.361,24.361,0,0,0-.106-2.689c-.07-.361-.423-.379-.757-.4-.088,0-.07-.343,0-.343a11.118,11.118,0,0,0,1.356.018c-.088,1.245-.194,2.328-.194,3.248Zm4.683-.722c0-1.191-.053-2.581-.106-2.978-.035-.325-.387-.379-.7-.4-.07,0-.053-.343,0-.343a9.984,9.984,0,0,0,1.285.018c-.053.668-.176,2.111-.176,3.79v.866c0,1.895.141,3.194.211,4.1l-.37.018c-.088,0-.141-.09-.141-.217,0-.379.018-1.155.018-1.678-.247,1.029-.88,1.985-1.972,1.985-1.321,0-1.884-1.029-1.884-2.923,0-.812.018-1.642.018-2.292v-.523c0-1.047-.07-2.165-.141-3.068h.7c.158,0,.247.09.247.271-.035.686-.106,1.913-.106,2.978v1.39c0,2.653.4,3.7,1.356,3.681.88,0,1.409-.92,1.6-1.8a10.364,10.364,0,0,0,.141-2v-.866Zm1.2.2c0-1.191-.088-2.833-.194-3.88h.722c.141,0,.246.072.246.271-.035.632-.088,2-.088,3.681v.812a25.2,25.2,0,0,0,.141,3.23c.053.379.458.379.757.415.088,0,.07.361,0,.343-.511-.036-1.109-.036-1.69-.018.07-.92.123-2.31.123-3.862v-.993Z" transform="translate(-126.352 -95.477)"></path>
    <path id="패스_21" data-name="패스 21" d="M204.442,93.76c0,2.147.088,4.349.211,6.514a11.176,11.176,0,0,0-1.356.018c-.07,0-.088-.415,0-.433.317-.018.74-.108.757-.523.053-.848.07-3.23.07-5.017v-2.8c0-2.364-.035-3.266-.141-4.566-.035-.379-.37-.469-.81-.487-.07-.018-.053-.469,0-.469a12.484,12.484,0,0,0,1.426.018c-.088,2.526-.158,3.5-.158,5.5Zm1.567,1.155c0,1.768.07,3.772.106,4.367.035.379.317.487.792.559.088.018.088.433,0,.433-.7-.036-1.215-.036-1.761-.018.07-1.516.176-3.573.176-6.316V91.486c0-2.111-.088-3.266-.194-5.45h.7c.194,0,.264.144.246.415-.035,1.534-.088,3.3-.088,5.179v3.284Z" transform="translate(-167.363 -70.481)"></path>
    <path id="패스_22" data-name="패스 22" d="M226.081,120.5c0-1.353-.053-2.905-.141-3.591-.053-.379-.44-.379-.757-.4-.088-.018-.088-.379,0-.361a10.263,10.263,0,0,0,1.3.018c-.07,1.155-.088,2.6-.088,4.584v2.617c0,2.2.106,7.507.194,8.752a10.359,10.359,0,0,0-1.285.018c-.053,0-.07-.361,0-.361.352-.018.669-.126.7-.415.088-.686.088-5.973.088-7.8V120.5Zm1.18.126a43.784,43.784,0,0,0-.211-4.421l.6-.018a.2.2,0,0,1,.194.18c.035.217.035.577.07,1.029a1.747,1.747,0,0,1,1.655-1.3c1.444,0,2.078,1.714,2.078,4.295,0,2.472-.863,4.638-2.395,4.638a1.788,1.788,0,0,1-1.3-.4v.722c0,.614.018,5.035.106,6.027.035.325.493.4.863.415.07,0,.053.361,0,.361-.528-.036-1.215-.036-1.814-.018.088-1.462.158-7.308.158-8.878Zm.687,0a24.529,24.529,0,0,0,.088,3.3,1.236,1.236,0,0,0,1.2.722c1.285,0,1.884-1.985,1.884-4.259,0-2.364-.475-3.844-1.6-3.844a1.623,1.623,0,0,0-1.426,1.317,13.42,13.42,0,0,0-.141,2.761m2.888,4.223c.986-.541,1.725-2.238,1.725-4.457,0-2.346-.546-3.627-1.409-4.1-.07-.036.035-.126.106-.108,1.162.235,2.2,1.57,2.2,4.2,0,2.544-1.162,4.15-2.447,4.529-.088.036-.247-.018-.176-.072" transform="translate(-185.48 -95.149)"></path>
    <path id="패스_23" data-name="패스 23" d="M276.977,103.248a36.726,36.726,0,0,0-.211,3.88v3.23c0,2.49.475,3.1,1.127,3.393.088.036-.07.108-.176.072-.792-.162-1.338-.92-1.338-2.544,0-1.335.088-2.526.088-3.627v-1.967c0-.108-.053-.18-.141-.18-.106,0-.7.054-.81.054-.053.018-.123-.126-.123-.343,0-.09.035-.126.088-.126h.81a.127.127,0,0,0,.141-.126c0-.379-.035-.866-.035-1.155a.352.352,0,0,1,.141-.289Zm1.285-.74c.088-.054.141,0,.141.162-.035.415-.035,1.191-.07,2.238,0,.108.053.162.194.144.07,0,1.655-.036,1.884-.036.053,0,.07.072.07.126,0,.217-.106.4-.229.4-.088,0-1.69-.036-1.8-.054s-.141.108-.141.217v3.97c0,3.14.493,3.753,1.321,3.753a1.173,1.173,0,0,0,.81-.271c.141-.108.141.361.053.415a2.056,2.056,0,0,1-1.162.289c-1.285,0-1.8-.993-1.8-2.869,0-1.209.088-2.184.088-3.465v-1.137c0-1.263-.141-2.779-.158-3.393Z" transform="translate(-226.903 -83.993)"></path>
    <path id="패스_24" data-name="패스 24" d="M306.175,120.939c0,2.761.4,3.826,1.162,4.223.088.054-.035.144-.158.108-.81-.253-1.356-1.065-1.356-2.851,0-.794.053-1.66.053-2.49a24.362,24.362,0,0,0-.106-2.689c-.07-.361-.423-.379-.757-.4-.088,0-.07-.343,0-.343a11.118,11.118,0,0,0,1.356.018c-.088,1.245-.194,2.328-.194,3.248Zm4.684-.722c0-1.191-.053-2.581-.106-2.978-.035-.325-.387-.379-.7-.4-.07,0-.053-.343,0-.343a9.983,9.983,0,0,0,1.285.018c-.053.668-.176,2.111-.176,3.79v.866c0,1.895.141,3.194.211,4.1l-.37.018c-.088,0-.141-.09-.141-.217,0-.379.018-1.155.018-1.678-.247,1.029-.88,1.985-1.972,1.985-1.321,0-1.884-1.029-1.884-2.923,0-.812.018-1.642.018-2.292v-.523c0-1.047-.07-2.165-.141-3.068h.7c.158,0,.246.09.246.271-.035.686-.106,1.913-.106,2.978v1.39c0,2.653.4,3.7,1.356,3.681.88,0,1.409-.92,1.6-1.8a10.364,10.364,0,0,0,.141-2v-.866Zm1.18.2c0-1.191-.088-2.833-.194-3.88h.722c.141,0,.246.072.246.271-.035.632-.088,2-.088,3.681v.812a25.186,25.186,0,0,0,.141,3.23c.053.379.458.379.757.415.088,0,.07.361,0,.343-.511-.036-1.109-.036-1.69-.018.07-.92.123-2.31.123-3.862v-.993Z" transform="translate(-251.26 -95.477)"></path>
    <path id="패스_25" data-name="패스 25" d="M356.69,120.16c0-1.426-.07-2.833-.123-3.248-.053-.343-.475-.379-.792-.4-.07,0-.053-.343,0-.343a11.722,11.722,0,0,0,1.373.018c-.07,1.047-.158,2.436-.158,3.988v.866c0,1.173.088,2.8.194,3.9a10.424,10.424,0,0,0-1.3.018c-.053,0-.07-.343,0-.361.352,0,.687-.126.7-.4a31.471,31.471,0,0,0,.088-3.248v-.794Zm1.2.126c0-1.913-.123-3.194-.194-4.1l.669-.018c.123,0,.194.09.211.253,0,.361-.053,1.5-.053,2.22.211-1.3,1.056-2.544,2.236-2.544a.871.871,0,0,1,.916.632,2.292,2.292,0,0,1-.018.92c-.018.072-.247.09-.247,0a.963.963,0,0,0-.88-.794c-.88,0-1.585,1.011-1.831,2.129a8.769,8.769,0,0,0-.141,1.606v.848c0,1.047.07,2.346.123,2.761.035.289.387.4.9.433.088,0,.088.343,0,.343-.6-.036-1.215-.036-1.884-.018.07-.812.176-2.129.176-3.753v-.92Z" transform="translate(-293.095 -95.149)"></path>
    <path id="패스_26" data-name="패스 26" d="M391.092,120.539c0-2.508,1.039-4.006,2.06-4.349.088-.036.246.018.158.072-.933.451-1.708,1.931-1.708,4.277,0,2.364.951,3.844,1.9,4.295.07.036-.088.126-.176.09-1.074-.379-2.236-1.859-2.236-4.385m2.342-.054c0,2.653.863,4.15,2.43,4.15a2.146,2.146,0,0,0,2.113-1.841c.035-.126.264-.126.282-.018a3.422,3.422,0,0,1-.106,1.191c-.141.4-.634,1.047-2.342,1.047-2.271,0-3.293-1.787-3.293-4.493,0-2.562.863-4.421,2.43-4.421,1.479,0,2.007,1.841,2.025,4.385Zm2.747-.343c.194,0,.246-.09.246-.289-.018-1.823-.37-3.338-1.373-3.338-1.127,0-1.6,1.534-1.62,3.627Zm1.585.379c.106-2.093-.335-3.645-1.268-4.223-.088-.072.07-.126.141-.108,1.285.4,2.007,2.039,2.007,4.042,0,.2-.07.289-.158.289Z" transform="translate(-322.232 -95.149)"></path>
    <path id="패스_27" data-name="패스 27" d="M66.015,221.986c-.088,0-.123-.054-.158-.18-.264-.9-.6-2.2-1.056-3.735-.44-1.462-.792-2.689-1.092-3.411-.053-.144-.3-.2-.634-.235-.07-.054-.053-.271,0-.325a6.4,6.4,0,0,0,1.021.018c.246,1.137.563,2.382.986,3.862a33.04,33.04,0,0,0,1.338,3.988Zm1.461-1.083c.3-.956.616-1.949.968-3.266.352-1.245.616-2.2.739-2.923.035-.2-.194-.289-.616-.289-.053,0-.053-.325.018-.325a11.931,11.931,0,0,0,1.8,0c.07,0,.07.325,0,.325-.246.018-.528.054-.616.271-.317.758-.634,1.768-1.021,3.05-.458,1.48-.88,3-1.321,4.259-.493,1.48-1.409,3.429-2.359,3.429a1.175,1.175,0,0,1-.88-.559c-.018-.054.07-.289.106-.271a1.88,1.88,0,0,0,.634.126c.528,0,1.409-.7,2.007-2.238a.875.875,0,0,0,0-.523c-.246-1.029-.616-2.581-1.056-4.169-.423-1.444-.792-2.689-1.2-3.681.581.018,1.215.018,1.849-.018.053,0,.053.325,0,.325-.475.018-.74.108-.7.307.123.7.317,1.552.651,2.833.335,1.335.651,2.346.951,3.338Z" transform="translate(-51.931 -175.465)"></path>
    <path id="패스_28" data-name="패스 28" d="M104.017,217.363c0-1.281-.053-2.581-.106-2.905-.053-.307-.387-.343-.7-.379-.053,0-.053-.307,0-.307a9.177,9.177,0,0,0,1.232.018c-.053.812-.141,2.165-.141,3.681v.686c0,1.083.106,2.544.194,3.5a9.123,9.123,0,0,0-1.233.018c-.053,0-.07-.307,0-.325.37-.054.669-.126.7-.343.035-.505.053-1.588.053-2.923Zm1.074.217c0-1.624-.106-2.959-.176-3.772h.6c.106,0,.158.054.158.144,0,.343-.018,1.155,0,1.588.176-.884.775-1.841,1.69-1.841,1.021,0,1.409.9,1.409,2.274,0,.812-.018,1.426-.018,2.057v.686a25.653,25.653,0,0,0,.176,2.923,7.033,7.033,0,0,0-1.074.018c-.053,0-.053-.307,0-.325.335-.054.493-.108.546-.343a17.539,17.539,0,0,0,.088-2.238v-1.191c0-2.274-.264-3.411-1.2-3.411-.757,0-1.25.812-1.461,1.8a11.942,11.942,0,0,0-.106,1.732v.956c0,.722.053,1.967.106,2.346.035.235.246.325.511.343.07.018.053.343,0,.325a11.819,11.819,0,0,0-1.391-.018c.018-.632.141-1.877.141-3.194v-.866m4.49-.343c0-2.129-.3-3.05-.88-3.393-.053-.036.018-.09.088-.072a1.691,1.691,0,0,1,1.409,1.642c.176-.794.74-1.7,1.673-1.7,1,0,1.409.9,1.409,2.292,0,.7-.018,1.245-.018,1.967v.668c0,1.444.123,2.617.158,3.014a6.763,6.763,0,0,0-1.056.018c-.053,0-.053-.307,0-.325.282-.054.493-.126.511-.343a23.815,23.815,0,0,0,.106-2.508v-.956c-.018-2.346-.37-3.375-1.18-3.375-.757,0-1.25.7-1.5,1.787a11.492,11.492,0,0,0-.106,1.678v.7a23.843,23.843,0,0,0,.106,2.653c.035.235.282.325.563.343.07.018.053.325,0,.325a12.791,12.791,0,0,0-1.444-.018c.053-.632.141-1.823.141-3.3v-1.1Zm4.49.379c0-2.508-.282-3.374-.9-3.735-.053-.054.018-.108.088-.09,1.056.162,1.5,1.137,1.5,2.454,0,.884-.07,1.642-.07,2.328a13.547,13.547,0,0,0,.141,2.436c.053.289.387.325.651.343.07.018.053.343,0,.325a14.226,14.226,0,0,0-1.532-.018c.07-1.119.141-2.057.141-2.851v-1.191Z" transform="translate(-85.002 -175.137)"></path>
    <path id="패스_29" data-name="패스 29" d="M174.841,217.77a30.04,30.04,0,0,0-.141-3.23c-.053-.343-.4-.343-.687-.343-.088-.018-.07-.343,0-.325a8.4,8.4,0,0,0,1.18.018c-.053,1.029-.088,2.346-.088,4.114v2.346c0,1.967.106,7.11.176,8.229a8.772,8.772,0,0,0-1.18.018c-.053,0-.053-.325,0-.325.317-.018.616-.108.634-.379.07-.632.088-5.738.088-7.381V217.77Zm1.074.108c0-1.534-.088-2.905-.194-3.97l.528-.018a.164.164,0,0,1,.176.162c.018.2.018.523.053.92a1.573,1.573,0,0,1,1.5-1.173c1.321,0,1.884,1.534,1.884,3.862,0,2.22-.775,4.169-2.166,4.169a1.592,1.592,0,0,1-1.18-.361v.65c0,.541.018,4.89.106,5.775.018.289.458.361.775.379.053,0,.053.325,0,.325-.475-.036-1.092-.036-1.655-.018.088-1.3.141-6.929.141-8.355v-2.346Zm.634,0a16.93,16.93,0,0,0,.088,2.959,1.118,1.118,0,0,0,1.092.65c1.18,0,1.708-1.768,1.708-3.826,0-2.129-.423-3.465-1.461-3.465a1.473,1.473,0,0,0-1.285,1.191,9.939,9.939,0,0,0-.141,2.49m2.623,3.79c.9-.487,1.567-2,1.567-4.006,0-2.111-.493-3.266-1.285-3.681-.053-.036.035-.108.106-.09,1.056.217,2.007,1.408,2.007,3.79,0,2.292-1.056,3.735-2.236,4.078-.088,0-.229-.054-.158-.09" transform="translate(-143.325 -175.219)"></path>
    <path id="패스_30" data-name="패스 30" d="M221.492,217.806c0-2.2.933-3.537,1.849-3.916.123-.054.264.018.176.072-.916.469-1.549,1.877-1.549,3.844s.634,3.375,1.549,3.862c.088.054-.07.108-.176.054-.9-.379-1.849-1.714-1.849-3.916m3.539,4.006c-1.426,0-2.218-1.913-2.218-4.006s.792-4.006,2.236-4.006,2.254,1.913,2.254,4.006c-.018,2.093-.828,4.006-2.271,4.006m.194-.4c1.021,0,1.567-1.732,1.567-3.609s-.563-3.609-1.585-3.609c-1.056,0-1.567,1.732-1.567,3.609,0,1.895.546,3.609,1.585,3.609m1.338.253c.916-.487,1.549-1.895,1.549-3.862s-.634-3.374-1.549-3.844c-.053-.054.053-.108.158-.072,1.127.325,2.183,1.624,2.183,3.916s-1.056,3.591-2.183,3.916c-.106.054-.229-.018-.158-.054" transform="translate(-182.494 -175.219)"></path>
    <path id="패스_31" data-name="패스 31" d="M269.563,221.812c-1.162,0-1.532-.469-1.62-.83a3.782,3.782,0,0,1,.018-1.1c.018-.072.247-.072.264,0,.141.812.581,1.588,1.5,1.588a1.3,1.3,0,0,0,1.373-1.39,2.212,2.212,0,0,0-1.409-1.913c-1.127-.686-1.69-1.317-1.69-2.418a1.832,1.832,0,0,1,1.338-1.877c.053-.018.141.054.07.09a1.758,1.758,0,0,0-.968,1.732,2.391,2.391,0,0,0,1.5,2.238c1.074.632,1.6,1.191,1.6,2.165a1.729,1.729,0,0,1-1.972,1.714m1.743-.126a1.92,1.92,0,0,0,.933-1.823,2.634,2.634,0,0,0-1.567-2.346c-.968-.6-1.532-1.119-1.532-2.021a1.732,1.732,0,0,1,1.937-1.7c1.233,0,1.532.523,1.62.9a3.842,3.842,0,0,1-.018,1.011c-.018.072-.264.072-.264,0-.141-.794-.493-1.588-1.373-1.588a1.119,1.119,0,0,0-1.162,1.209c0,.776.37,1.191,1.285,1.768a2.846,2.846,0,0,1,1.778,2.544,2.016,2.016,0,0,1-1.567,2.129c-.07.018-.141-.072-.07-.09" transform="translate(-220.74 -175.219)"></path>
    <path id="패스_32" data-name="패스 32" d="M300.785,203c0-1.245-.07-2.562-.106-2.851-.053-.343-.44-.379-.7-.415-.07,0-.053-.307,0-.307a9.635,9.635,0,0,0,1.25.018c-.053.812-.141,2.165-.141,3.591v.776c0,1.083.106,2.544.194,3.5a9.057,9.057,0,0,0-1.215.018c-.053,0-.07-.307,0-.307.264-.036.651-.09.7-.415.035-.505.053-1.534.053-2.851V203Zm.6-5.233a.743.743,0,0,1-.81-.812.705.705,0,0,1,.616-.758c.053,0,.053.054.018.09a.914.914,0,0,0-.211.65c0,.361.211.6.423.6.264,0,.423-.289.423-.614a.935.935,0,0,0-.194-.632c-.018-.054-.018-.09.018-.09.581-.018.9.289.9.722,0,.577-.4.848-1.18.848m1.109,6.172c0,1.1.053,2.184.106,2.653.018.325.44.379.7.415.088.018.07.325,0,.325a15.739,15.739,0,0,0-1.585-.018c.053-.614.158-1.841.158-3.374v-.956a34.561,34.561,0,0,0-.176-3.519l.651-.018c.158,0,.211.054.211.217-.018.722-.053,2.147-.053,3.068v1.209Z" transform="translate(-247.119 -160.791)"></path>
    <path id="패스_33" data-name="패스 33" d="M320.631,218.106c0,2.472.37,3.429,1.056,3.79.07.054-.035.144-.141.09-.74-.235-1.232-.956-1.232-2.562,0-.722.053-1.48.053-2.238a19.636,19.636,0,0,0-.106-2.418c-.053-.325-.387-.343-.687-.361-.07,0-.053-.307,0-.307a9.172,9.172,0,0,0,1.232.018c-.088,1.119-.176,2.093-.176,2.923Zm4.261-.65c0-1.065-.053-2.328-.106-2.671-.035-.289-.352-.343-.634-.361-.053,0-.053-.307,0-.307a8.4,8.4,0,0,0,1.18.018c-.053.614-.158,1.895-.158,3.393v.776c0,1.7.123,2.869.194,3.681l-.335.018c-.088,0-.123-.072-.123-.2,0-.343.018-1.029.018-1.5-.229.92-.792,1.768-1.8,1.768-1.215,0-1.725-.92-1.708-2.635,0-.722.018-1.48.018-2.057v-.469c0-.938-.053-1.949-.123-2.761h.634a.189.189,0,0,1,.211.235c-.035.632-.106,1.714-.106,2.671V218.3c0,2.382.37,3.32,1.232,3.3.792,0,1.285-.83,1.461-1.624a8.528,8.528,0,0,0,.123-1.8v-.722Zm1.092.18c0-1.083-.07-2.544-.176-3.5h.651c.141,0,.211.054.211.235-.035.559-.088,1.8-.088,3.3v.722a24.583,24.583,0,0,0,.123,2.905c.053.343.423.343.687.379.07,0,.053.325,0,.307a14.283,14.283,0,0,0-1.532-.018c.053-.812.106-2.075.106-3.483v-.848Z" transform="translate(-263.269 -175.465)"></path>
    <path id="패스_34" data-name="패스 34" d="M366.717,217.363c0-1.281-.053-2.581-.106-2.905-.053-.307-.387-.343-.7-.379-.053,0-.053-.307,0-.307a9.177,9.177,0,0,0,1.232.018c-.053.812-.141,2.165-.141,3.681v.686c0,1.083.106,2.544.194,3.5a9.123,9.123,0,0,0-1.233.018c-.053,0-.07-.307,0-.325.37-.054.669-.126.7-.343.035-.505.053-1.588.053-2.923Zm1.092.217c0-1.624-.106-2.959-.176-3.772h.6c.106,0,.158.054.158.144,0,.343-.018,1.155,0,1.588.176-.884.775-1.841,1.69-1.841,1.021,0,1.409.9,1.409,2.274,0,.812-.018,1.426-.018,2.057v.686a25.652,25.652,0,0,0,.176,2.923,7.033,7.033,0,0,0-1.074.018c-.053,0-.053-.307,0-.325.335-.054.493-.108.528-.343a17.545,17.545,0,0,0,.088-2.238v-1.191c0-2.274-.264-3.411-1.2-3.411-.757,0-1.25.812-1.461,1.8a11.937,11.937,0,0,0-.106,1.732v.956c0,.722.053,1.967.106,2.346.035.235.246.325.511.343.07.018.053.343,0,.325a11.819,11.819,0,0,0-1.391-.018c.018-.632.141-1.877.141-3.194v-.866Zm4.472-.343c0-2.129-.3-3.05-.88-3.393-.053-.036.018-.09.088-.072a1.691,1.691,0,0,1,1.409,1.642c.176-.794.74-1.7,1.673-1.7,1,0,1.409.9,1.409,2.292,0,.7-.018,1.245-.018,1.967v.668c0,1.444.123,2.617.158,3.014a6.764,6.764,0,0,0-1.056.018c-.053,0-.053-.307,0-.325.282-.054.493-.126.511-.343a23.81,23.81,0,0,0,.106-2.508v-.956c-.018-2.346-.37-3.375-1.18-3.375-.757,0-1.25.7-1.5,1.787a11.5,11.5,0,0,0-.106,1.678v.7A23.85,23.85,0,0,0,373,220.99c.035.235.282.325.563.343.07.018.053.325,0,.325a12.791,12.791,0,0,0-1.444-.018c.053-.632.141-1.823.141-3.3v-1.1Zm4.49.379c0-2.508-.282-3.374-.9-3.735-.053-.054.018-.108.088-.09,1.056.162,1.5,1.137,1.5,2.454,0,.884-.07,1.642-.07,2.328a13.545,13.545,0,0,0,.141,2.436c.053.289.387.325.651.343.07.018.053.343,0,.325a14.226,14.226,0,0,0-1.532-.018c.07-1.119.141-2.057.141-2.851v-1.191Z" transform="translate(-301.448 -175.137)"></path>
    <path id="패스_35" data-name="패스 35" d="M74.092,307.421c0-2.454,1.162-4.078,2.2-4.295.07-.018.229.036.158.072-1.021.415-1.884,2.021-1.884,4.241,0,2.436.863,3.772,1.761,4.259.088.036-.053.108-.158.072-1-.361-2.078-1.7-2.078-4.349m4.085,4.421c-1.761,0-2.782-1.75-2.782-4.421,0-2.472,1.074-4.421,2.905-4.421,1.232,0,1.62.65,1.708,1.173a5.086,5.086,0,0,1-.018,1.173c-.018.108-.229.108-.247.018-.158-.992-.581-1.985-1.479-1.985-1.285,0-2.025,1.877-2.007,4.042,0,2.256.7,4.042,1.99,4.042.9,0,1.338-.812,1.532-1.66.018-.108.247-.108.264,0a3.709,3.709,0,0,1-.106,1.191c-.211.415-.581.848-1.761.848" transform="translate(-61.047 -248.322)"></path>
    <path id="패스_36" data-name="패스 36" d="M111.154,282.642c0,1.516.07,3.465.176,5.2a9.23,9.23,0,0,0-1.232.018c-.07.018-.088-.343,0-.343.3-.054.669-.108.687-.433.053-.668.07-2.581.07-4.006v-2.22c0-2.093-.035-5.269-.123-6.3-.018-.325-.352-.361-.757-.4-.07-.018-.053-.361,0-.361a10.362,10.362,0,0,0,1.3.018c-.088,2-.141,5.251-.141,7.038v1.786Zm.81-1.823c0-1.877-.088-5.251-.176-7h.634c.158,0,.229.126.229.343-.018,1.227-.088,5.341-.088,6.8.176-.866.828-1.877,1.726-1.877,1.109,0,1.444,1.155,1.444,2.544,0,.776-.018,1.8-.018,2.436v.668c0,1.353.106,2.49.158,3.122a6.809,6.809,0,0,0-1.056.018c-.053,0-.07-.343,0-.343.317-.036.475-.144.511-.361a21.857,21.857,0,0,0,.106-2.671v-1.245c0-2.508-.3-3.663-1.25-3.663-.74,0-1.3.9-1.514,1.985a15.613,15.613,0,0,0-.088,1.732v.884a23.839,23.839,0,0,0,.106,2.959c.035.253.229.343.511.361.088,0,.07.343,0,.343a11.774,11.774,0,0,0-1.391-.018c.053-.848.158-2.851.158-4.962Zm4.578,2.581c0-2.653-.264-3.681-.9-4.15-.035-.036.018-.108.07-.108,1.18.235,1.532,1.39,1.532,2.725,0,.92-.07,1.75-.07,2.653a17.667,17.667,0,0,0,.123,2.581c.053.307.423.343.669.4.088,0,.07.343,0,.343a14.9,14.9,0,0,0-1.567-.018c.088-1.209.141-2.238.141-3.266Z" transform="translate(-90.573 -224.391)"></path>
    <path id="패스_37" data-name="패스 37" d="M158.292,307.4c0-2.49.951-3.97,1.884-4.295.088-.036.229.018.141.072-.863.451-1.567,1.913-1.567,4.241,0,2.346.88,3.826,1.743,4.259.053.036-.088.126-.158.09-.968-.4-2.042-1.877-2.042-4.367m2.148-.054c0,2.635.792,4.114,2.219,4.114a2.048,2.048,0,0,0,1.937-1.823c.018-.108.247-.108.264-.018a3.322,3.322,0,0,1-.106,1.173c-.123.4-.581,1.047-2.148,1.047-2.078,0-3.011-1.768-3.011-4.457,0-2.544.792-4.385,2.219-4.385,1.356,0,1.831,1.823,1.849,4.349Zm2.5-.343c.176,0,.229-.09.229-.289-.018-1.8-.352-3.32-1.25-3.32-1.039,0-1.461,1.516-1.479,3.609Zm1.461.379c.106-2.075-.3-3.609-1.162-4.187-.07-.072.053-.126.123-.108,1.18.379,1.849,2.021,1.849,4.006,0,.2-.053.289-.141.289Z" transform="translate(-130.421 -248.322)"></path>
    <path id="패스_38" data-name="패스 38" d="M201.592,307.421c0-2.436.951-3.9,1.866-4.313.123-.072.264.018.176.09-.916.523-1.567,2.075-1.567,4.241s.634,3.717,1.567,4.259c.088.054-.07.108-.176.072-.933-.451-1.866-1.913-1.866-4.349m3.539,4.421c-1.444,0-2.236-2.111-2.236-4.421s.792-4.421,2.254-4.421,2.254,2.111,2.254,4.421-.81,4.421-2.271,4.421m.211-.433c1.021,0,1.585-1.913,1.585-3.988s-.563-3.988-1.6-3.988c-1.056,0-1.585,1.913-1.585,3.988s.546,3.988,1.6,3.988m1.338.271c.916-.541,1.567-2.093,1.567-4.259s-.634-3.717-1.567-4.241c-.053-.054.053-.108.158-.09,1.144.343,2.2,1.786,2.2,4.313s-1.056,3.97-2.2,4.313c-.088.072-.229.018-.158-.036" transform="translate(-166.097 -248.322)"></path>
    <path id="패스_39" data-name="패스 39" d="M247.434,307.25c0-1.534-.07-2.978-.106-3.356-.035-.343-.44-.361-.722-.4-.053-.018-.053-.343,0-.343a9.908,9.908,0,0,0,1.268.018c-.053.9-.141,2.4-.141,4.169v.632c0,1.191.106,2.8.194,3.862a9.366,9.366,0,0,0-1.232.018c-.053,0-.053-.343,0-.343.3-.036.651-.126.669-.361.053-.614.07-1.75.07-3.05Zm1.092.018c0-1.913-.123-3.176-.176-4.078h.546c.158-.018.229.054.229.2,0,.361-.018,1.227-.018,1.75.211-1.137.845-2.039,1.743-2.039,1.039,0,1.444,1.011,1.444,2.436,0,.812-.018,1.588-.018,2.526v.6a28.024,28.024,0,0,0,.176,3.176,7.076,7.076,0,0,0-1.074.018c-.053,0-.053-.343,0-.343.282-.036.511-.108.528-.343a23.08,23.08,0,0,0,.088-2.653v-1.155c0-2.617-.3-3.79-1.215-3.79-.775,0-1.285.83-1.532,1.967a13.842,13.842,0,0,0-.106,1.913v.83a24.206,24.206,0,0,0,.106,2.869c.035.271.246.343.528.361.07,0,.053.343,0,.343a12.374,12.374,0,0,0-1.426-.018c.053-.668.158-2.021.158-3.717v-.848Zm4.578.577c0-3.068-.247-4.132-.9-4.584-.053-.036.018-.108.106-.09,1.039.18,1.5,1.173,1.5,2.689,0,.92-.088,1.913-.088,2.815a17.418,17.418,0,0,0,.123,2.436c.053.307.387.343.669.379.07.018.053.343,0,.343a14.515,14.515,0,0,0-1.532-.018c.07-1.281.123-2.31.123-3.212Z" transform="translate(-203.154 -248.404)"></path>
    <path id="패스_40" data-name="패스 40" d="M59.461,115.79c-1.887-.011-3.035-.484-3.119-.929a14.6,14.6,0,0,1-.2-2.314c0-.178.478-.175.5,0,.316,1.67,1.2,2.675,2.936,2.685,1.974.011,3.259-.938,3.269-2.806.01-1.779-1.048-2.874-3.1-3.82-2.272-1.1-3.587-2.6-3.578-4.423a3.84,3.84,0,0,1,2.949-3.763c.13-.021.39.091.238.157a3.536,3.536,0,0,0-2.3,3.456c-.01,1.8,1.046,3.186,3.123,4.22,2.207,1.057,3.525,2.154,3.514,4.111-.011,2.068-1.6,3.438-4.205,3.423Zm3.321-.226a3.632,3.632,0,0,0,2.21-3.478c.012-2.2-1.326-3.521-3.361-4.444-1.991-.99-3.33-2.02-3.3-3.8-.011-2.09,1.646-3.526,4.445-3.51,1.931.011,2.8.461,2.881.772a13.569,13.569,0,0,1,.161,2.269c0,.178-.457.2-.5,0-.36-1.581-.963-2.518-2.655-2.528a2.6,2.6,0,0,0-2.9,2.652c-.009,1.623,1.028,2.541,2.824,3.418,2.229,1.058,3.871,2.4,3.858,4.78a3.9,3.9,0,0,1-3.406,3.983c-.13.044-.347-.069-.26-.113" transform="translate(-46.253 -82.228)"></path>
    <path id="패스_41" data-name="패스 41" d="M13.888,39.23c.019-3.524-.088-6.6-.206-7.716-.059-.572-.894-.767-1.855-.773-.186,0-.151-.668,0-.667,1.363.071,2.2.076,3.314.051-.132,1.555-.432,5.522-.452,9.11l-.017,3.238c-.017,3.143.328,8.193.383,9.432a25.984,25.984,0,0,0-3.129.014c-.155,0-.182-.636,0-.667.837-.027,1.612-.181,1.677-.752.2-1.809.239-4.158.261-8.126Zm2.849.207c.018-3.3-.27-7.494-.384-9.3,1.332.039,2.6.046,4.12-.008.186,0,.182.668,0,.667-.929.026-1.736.212-1.8.752-.1,1.079-.212,4.92-.227,7.587l-.018,3.429c-.016,3.016.057,6.6.205,7.938.059.572.894.735,1.761.8.217.033.182.668,0,.667-1.27-.071-2.757-.079-4.089-.055.133-1.65.4-5.4.423-9.522Z" transform="translate(-9.64 -24.648)"></path>
    <path id="패스_42" data-name="패스 42" d="M25.776,263.3c.015-2.816-.071-5.277-.165-6.166-.047-.457-.714-.613-1.482-.617-.149,0-.121-.533,0-.533,1.089.057,1.757.061,2.648.04-.106,1.242-.346,4.412-.361,7.279l-.014,2.588c-.014,2.511.262,6.547.306,7.536a20.757,20.757,0,0,0-2.5.011c-.124,0-.146-.508,0-.533.669-.021,1.288-.145,1.34-.6.156-1.445.191-3.322.208-6.493Zm2.276.165c.014-2.638-.215-5.988-.307-7.435,1.064.031,2.079.037,3.292-.007.148,0,.146.534,0,.533-.743.021-1.387.17-1.439.6-.079.862-.17,3.931-.181,6.062l-.015,2.74c-.013,2.41.046,5.277.164,6.343.047.457.715.588,1.408.642.173.027.146.534,0,.533-1.015-.056-2.2-.063-3.267-.044.106-1.319.32-4.311.338-7.609Z" transform="translate(-19.797 -209.787)"></path>
    <path id="패스_43" data-name="패스 43" d="M3.568,171.724c-2.026-.012-3.258-.52-3.349-1A15.67,15.67,0,0,1,0,168.242c0-.191.513-.188.536,0,.34,1.792,1.289,2.872,3.152,2.882,2.119.012,3.5-1.007,3.51-3.012.01-1.91-1.125-3.086-3.332-4.1-2.439-1.183-3.851-2.791-3.841-4.748a4.122,4.122,0,0,1,3.166-4.04c.14-.023.419.1.255.168A3.8,3.8,0,0,0,.98,159.1c-.011,1.934,1.123,3.42,3.353,4.531,2.37,1.135,3.784,2.313,3.773,4.414-.012,2.22-1.72,3.691-4.515,3.675Zm3.565-.243A3.9,3.9,0,0,0,9.5,167.747c.013-2.363-1.424-3.78-3.608-4.771-2.137-1.062-3.575-2.168-3.542-4.078-.011-2.244,1.767-3.786,4.772-3.769,2.073.012,3,.494,3.093.829a14.55,14.55,0,0,1,.173,2.436c0,.191-.49.212-.536,0-.387-1.7-1.033-2.7-2.85-2.714a2.793,2.793,0,0,0-3.113,2.847c-.009,1.742,1.1,2.728,3.031,3.669,2.393,1.136,4.155,2.578,4.141,5.132A4.181,4.181,0,0,1,7.411,171.6c-.14.047-.372-.073-.279-.121" transform="translate(0.001 -127.135)"></path>
  </g>
</svg>
