<svg id="logo-icheon" xmlns="http://www.w3.org/2000/svg" xmlns:xlink="http://www.w3.org/1999/xlink" width="113.529" height="56.983" viewBox="0 0 113.529 56.983">
  <defs>
    <clipPath id="clip-path">
      <rect id="사각형_8" data-name="사각형 8" width="113.529" height="56.983" fill="none"></rect>
    </clipPath>
  </defs>
  <g id="그룹_7" data-name="그룹 7" clip-path="url('#clip-path')">
    <path id="패스_44" data-name="패스 44" d="M202.885,117.364h-.4a.122.122,0,0,1-.117-.1l-.445-1.474h-1.774l-.438,1.474a.136.136,0,0,1-.123.1h-.4a.107.107,0,0,1-.117-.1.1.1,0,0,1,.007-.045l1.267-4.173a.672.672,0,0,1,.7-.487.663.663,0,0,1,.692.481l1.267,4.179a.105.105,0,0,1,.007.045.1.1,0,0,1-.116.1m-1.719-4.185c-.02-.071-.061-.115-.13-.115a.137.137,0,0,0-.137.115l-.623,2.109h1.513Z" transform="translate(-153.415 -88.403)" fill="#0086d2"></path>
    <path id="패스_45" data-name="패스 45" d="M242.145,117.364h-.438c-.082,0-.124,0-.178-.083l-1.226-1.91h-.178c-.226,0-.391-.006-.754-.019v1.884a.125.125,0,0,1-.123.128h-.37a.126.126,0,0,1-.123-.128v-4.486c0-.09.041-.128.164-.141.294-.032.808-.051,1.206-.051,1.082,0,1.918.34,1.918,1.378v.045a1.281,1.281,0,0,1-1.075,1.295l1.246,1.948a.1.1,0,0,1,.021.058.084.084,0,0,1-.089.083m-.719-3.429c0-.641-.445-.853-1.3-.853-.212,0-.589,0-.754.019v1.756c.3.006.6.013.754.013.843,0,1.3-.2,1.3-.891Z" transform="translate(-184.005 -88.403)" fill="#0086d2"></path>
    <path id="패스_46" data-name="패스 46" d="M278.893,113.267h-1.335V117.4a.125.125,0,0,1-.123.128h-.377a.126.126,0,0,1-.123-.128v-4.134H275.6c-.075,0-.137-.032-.137-.1v-.282a.128.128,0,0,1,.137-.115h3.294a.117.117,0,0,1,.13.115v.282c0,.064-.055.1-.13.1" transform="translate(-212.295 -88.568)" fill="#0086d2"></path>
    <path id="패스_47" data-name="패스 47" d="M225.154,122.118a.4.4,0,1,1-.4-.373.389.389,0,0,1,.4.373" transform="translate(-172.906 -95.619)" fill="#0086d2"></path>
    <path id="패스_48" data-name="패스 48" d="M263.758,122.118a.4.4,0,1,1-.4-.373.387.387,0,0,1,.4.373" transform="translate(-202.658 -95.619)" fill="#0086d2"></path>
    <path id="패스_49" data-name="패스 49" d="M105.137,164.262h-1.195a.4.4,0,0,1-.391-.407V149.542a.381.381,0,0,1,.391-.386h1.195a.382.382,0,0,1,.391.386v14.313a.4.4,0,0,1-.391.407" transform="translate(-79.805 -117.148)" fill="#004187"></path>
    <path id="패스_50" data-name="패스 50" d="M137.326,178.021a16.819,16.819,0,0,1-2.716.224c-2.954,0-4.628-1.952-4.628-4.94v-1.586c0-2.989,1.651-4.941,4.628-4.941a17.039,17.039,0,0,1,2.716.224c.348.061.435.163.435.447v.732c0,.2-.174.3-.369.3H137.3a22.653,22.653,0,0,0-2.694-.142c-1.738,0-2.716,1.078-2.716,3.375V173.3c0,2.277.956,3.375,2.716,3.375a22.61,22.61,0,0,0,2.694-.142h.087c.2,0,.369.1.369.3v.732c0,.264-.087.386-.435.447" transform="translate(-100.176 -130.989)" fill="#004187"></path>
    <path id="패스_51" data-name="패스 51" d="M187.961,163.593h-1.043a.422.422,0,0,1-.434-.407V156.5c0-2.033-.913-2.664-2.325-2.664a8.949,8.949,0,0,0-3,.57v8.783a.437.437,0,0,1-.435.407h-1.064a.418.418,0,0,1-.413-.407V148.711a.4.4,0,0,1,.413-.407h1.086a.4.4,0,0,1,.413.407V152.9a9.614,9.614,0,0,1,3.324-.63c2.3,0,3.911,1.24,3.911,4.229v6.689a.423.423,0,0,1-.435.407" transform="translate(-138.145 -116.479)" fill="#004187"></path>
    <path id="패스_52" data-name="패스 52" d="M244.242,173.081h-7.278v.285c0,2.42,1.021,3.314,3.02,3.314a31.8,31.8,0,0,0,3.868-.224h.108c.174,0,.348.081.348.285v.691c0,.264-.087.407-.434.468a21.017,21.017,0,0,1-3.889.346c-2.5,0-4.931-1.1-4.931-4.88v-1.83c0-2.907,1.716-4.758,4.823-4.758,3.172,0,4.78,1.871,4.78,4.758v1.1a.4.4,0,0,1-.413.447m-1.521-1.545c0-2.3-.934-3.192-2.846-3.192-1.869,0-2.911,1-2.911,3.192v.183h5.757Z" transform="translate(-181.151 -130.989)" fill="#004187"></path>
    <path id="패스_53" data-name="패스 53" d="M296.15,178.245c-3.194,0-4.823-1.972-4.823-4.961v-1.545c0-2.989,1.63-4.961,4.823-4.961s4.845,1.972,4.845,4.961v1.545c0,2.989-1.651,4.961-4.845,4.961m2.933-6.506c0-2.074-.891-3.4-2.933-3.4-2.02,0-2.911,1.3-2.911,3.4v1.545c0,2.074.869,3.4,2.911,3.4,2.02,0,2.933-1.3,2.933-3.4Z" transform="translate(-224.522 -130.989)" fill="#004187"></path>
    <path id="패스_54" data-name="패스 54" d="M358.117,178.1h-1.043a.422.422,0,0,1-.434-.407v-6.689c0-2.054-.739-2.684-2.39-2.684a7.24,7.24,0,0,0-2.933.793v8.58a.437.437,0,0,1-.435.407h-1.064a.417.417,0,0,1-.413-.407V167.328a.4.4,0,0,1,.413-.407H350.9a.4.4,0,0,1,.413.407v.386a6.88,6.88,0,0,1,3.454-.935c2.607,0,3.781,1.525,3.781,4.229V177.7a.423.423,0,0,1-.435.407" transform="translate(-269.282 -130.989)" fill="#004187"></path>
    <path id="패스_55" data-name="패스 55" d="M334.122,61.906a16.662,16.662,0,0,1,1.867.772,11.533,11.533,0,0,0-5.548-3.507c-2.488-.684-4.108-.265-3.475,1.228a5.3,5.3,0,0,0,1.4,1.637c1.1-.88,3.218-.91,5.756-.131" transform="translate(-251.883 -46.223)" fill="#00a7de"></path>
    <path id="패스_56" data-name="패스 56" d="M346.468,81.732a17.271,17.271,0,0,0-8.077-7.4,4.4,4.4,0,0,1,.266.351c.841,1.55-.267,2.286-2.985,1.586a14.092,14.092,0,0,1-4.9-2.578c-.779.615-1.055,1.651-.606,3.14,1.211,3.646,6.866,8.3,11.632,9.623,4.8,1.189,6.287-1.236,4.675-4.723" transform="translate(-254.284 -57.878)" fill="#0086d2"></path>
    <path id="패스_57" data-name="패스 57" d="M341.419,72.161c-.078-.113-.168-.235-.266-.351a16.721,16.721,0,0,0-1.867-.772c-2.539-.78-4.652-.75-5.757.131a14.1,14.1,0,0,0,4.9,2.578c2.718.7,3.827-.035,2.986-1.586" transform="translate(-257.046 -55.356)" fill="#005ca2"></path>
    <path id="패스_58" data-name="패스 58" d="M201.544,44.374c.3-1.076,2.38-1.921,4.849-2.068s4.352.517,4.393,1.552c-.027,1.062-2.195,2.027-4.942,2.211-2.722.133-4.572-.635-4.3-1.694" transform="translate(-155.306 -33.213)" fill="#f7e200"></path>
    <path id="패스_59" data-name="패스 59" d="M258.157,51.651c-4.05-.83-7.821-.176-8.9,1.8a2.017,2.017,0,0,0-.119,1.491c.054.006.1.006.155.011,2.345.371,3.867,1.666,3.374,3.074-.017.033-.039.059-.059.092a15.385,15.385,0,0,0,3.027,1.029c4.786,1,8.761-.044,9.141-2.231.267-2.227-2.625-4.32-6.619-5.271" transform="translate(-191.939 -40.291)" fill="#c8cf00"></path>
    <path id="패스_60" data-name="패스 60" d="M230.876,68.07c-2.36-.279-4.6.4-5.326,1.741-.723,1.363.607,2.768,3.176,3.209,2.542.336,4.97-.42,5.62-1.773-1.917-.89-3.141-2.042-3.469-3.177" transform="translate(-173.677 -53.414)" fill="#81af0c"></path>
    <path id="패스_61" data-name="패스 61" d="M249.589,68.307c-.05,0-.1,0-.155-.011.328,1.135,1.552,2.287,3.469,3.177.02-.033.043-.059.06-.092.493-1.408-1.03-2.7-3.374-3.074" transform="translate(-192.235 -53.64)" fill="#43861a"></path>
    <path id="패스_62" data-name="패스 62" d="M408.088,104.511c-.852-1.8-.232-2.325,1.215-1.492a11.816,11.816,0,0,1,3.972,4.413c.833,1.723.578,2.634-.855,1.884a13.124,13.124,0,0,1-4.331-4.8" transform="translate(-314.21 -80.609)" fill="#69c5f2"></path>
    <path id="패스_63" data-name="패스 63" d="M395.246,82.666c-.306-.717.382-.586,1.508.17a9.43,9.43,0,0,1,2.587,2.682c.365.759-.192.772-1.363-.035a9.123,9.123,0,0,1-2.732-2.817" transform="translate(-304.555 -64.555)" fill="#6ac0ca"></path>
    <path id="패스_64" data-name="패스 64" d="M285.666,40.509c.263-.575,1.89-.641,3.737-.2,1.82.467,3.215,1.284,3.155,1.919-.091.621-1.7.734-3.753.264-1.978-.544-3.373-1.368-3.138-1.985" transform="translate(-220.139 -31.434)" fill="#ede131"></path>
    <path id="패스_65" data-name="패스 65" d="M118.038,58.84a10.617,10.617,0,0,1,4.013-2.292c1.378-.347,1.833.059.9,1.069a10.575,10.575,0,0,1-4.278,2.443c-1.408.3-1.555-.213-.636-1.22" transform="translate(-90.524 -44.317)" fill="#ffcf31"></path>
    <path id="패스_66" data-name="패스 66" d="M67.946,94.281a3.211,3.211,0,0,1,.21-.3,6.162,6.162,0,0,0-1.064.455,13.8,13.8,0,0,0-5.465,5.736c-.978,2.175-.307,3.27,2.048,2.168a15.586,15.586,0,0,0,6.1-6.413,2.919,2.919,0,0,0,.241-1.358,7.016,7.016,0,0,1-.723.414c-1.331.563-1.827.254-1.347-.7" transform="translate(-47.16 -73.81)" fill="#de5900"></path>
    <path id="패스_67" data-name="패스 67" d="M94.4,81.817a7.869,7.869,0,0,0-2.84,2.358c1.053-.343,1.755-.17,1.86.588a7.526,7.526,0,0,0,2.494-2.393c.408-.939-.254-1.118-1.514-.553" transform="translate(-70.562 -64.008)" fill="#f48700"></path>
    <path id="패스_68" data-name="패스 68" d="M90.249,93.36a3.184,3.184,0,0,0-.21.3c-.481.952.016,1.261,1.347.7a7.015,7.015,0,0,0,.723-.414c-.1-.758-.807-.932-1.86-.588" transform="translate(-69.253 -73.193)" fill="#ac4b00"></path>
    <path id="패스_69" data-name="패스 69" d="M133.639,60.279c1.009-1.51,3.37-2.536,5.672-2.536a3.758,3.758,0,0,0,.564-1.2c.528-2.691-2.714-3.6-7.011-2.714-4.289.968-8.184,3.4-9.547,6.084A3.537,3.537,0,0,0,123,60.992a12.1,12.1,0,0,1,2.015-.8c3.238-.885,5.531.157,4.814,2.918-.026.094-.083.19-.119.283a21.159,21.159,0,0,0,3.713-1.273,1.887,1.887,0,0,1,.221-1.842" transform="translate(-94.791 -42.017)" fill="#ffb200"></path>
    <path id="패스_70" data-name="패스 70" d="M174.508,73.235c-.055,0-.108.01-.167.01a14.283,14.283,0,0,1-5.893,4.378,2.858,2.858,0,0,0,2.607,1.284c2.5.121,5.285-1.118,6.2-2.732.855-1.63-.417-2.842-2.742-2.94" transform="translate(-129.82 -57.519)" fill="#f07700"></path>
    <path id="패스_71" data-name="패스 71" d="M173.836,73.282c-2.3,0-4.664,1.026-5.672,2.536a1.886,1.886,0,0,0-.221,1.842,14.283,14.283,0,0,0,5.893-4.378" transform="translate(-129.316 -57.556)" fill="#cc5d00"></path>
    <path id="패스_72" data-name="패스 72" d="M103.892,88.423a11.2,11.2,0,0,0-5.376,5.28c-1.008,2.687.49,4.459,4,3.643,3.445-.859,7.093-3.856,8.088-6.521-.166.039-.332.083-.5.117-4.325.763-6.495-.44-6.212-2.518" transform="translate(-75.688 -69.448)" fill="#de0d09"></path>
    <path id="패스_73" data-name="패스 73" d="M124.928,83.571a12.138,12.138,0,0,0-2.015.8c-.283,2.078,1.888,3.282,6.212,2.518.165-.034.331-.078.5-.117.035-.093.092-.189.119-.283.718-2.761-1.576-3.8-4.814-2.918" transform="translate(-94.708 -65.396)" fill="#b8001c"></path>
    <path id="패스_74" data-name="패스 74" d="M185.433,235.584a2.265,2.265,0,0,1,0,3.064,1.975,1.975,0,0,1-2.895,0,2.254,2.254,0,0,1,0-3.064,1.983,1.983,0,0,1,2.895,0m-2.162,2.68a.756.756,0,0,0,1.426-.007,2.544,2.544,0,0,0,.248-1.132,2.576,2.576,0,0,0-.244-1.131.757.757,0,0,0-1.43,0,2.722,2.722,0,0,0,0,2.27m3.379-3.423-.341-.167c-.073-.039-.1-.088-.074-.149s.061-.088.113-.083l1.387.145c.083.01.129.033.14.069a.331.331,0,0,1,.015.076v5.8a.61.61,0,0,1-.155.406.489.489,0,0,1-.387.181h-.295a.225.225,0,0,1-.147-.04.169.169,0,0,1-.047-.134v-5.773a.34.34,0,0,0-.209-.326" transform="translate(-140.217 -184.132)" fill="#004187"></path>
    <path id="패스_75" data-name="패스 75" d="M244.026,238.089a4.057,4.057,0,0,1-.922.5q-.194.073-.287-.036t.1-.261a5.138,5.138,0,0,0,1.007-1.059,3.2,3.2,0,0,0,.574-1.306H243.46a.5.5,0,0,1-.229-.033.643.643,0,0,1-.112-.1l-.279-.334q-.078-.123,0-.174a.172.172,0,0,1,.174-.007,1.245,1.245,0,0,0,.337.1,3.563,3.563,0,0,0,.453.022h.736a.836.836,0,0,0-.112-.45.661.661,0,0,0-.229-.218.154.154,0,0,1-.085-.138c0-.058.044-.087.132-.087q.031,0,.488.04l.86.076a.228.228,0,0,1,.136.04.128.128,0,0,1,.035.1q0,.065-.008.287t-.015.352h1.085q.294,0,.294.261t-.294.261h-1.155a2.609,2.609,0,0,1-.174.482,3.78,3.78,0,0,1-.267.468,3.447,3.447,0,0,0,.3.188,3,3,0,0,0,.275.13,1.043,1.043,0,0,0,.357.1.313.313,0,0,1,.217.094,1.8,1.8,0,0,1,.473.588.469.469,0,0,1,.023.457.35.35,0,0,1-.225.149.6.6,0,0,1-.357-.054,2.581,2.581,0,0,1-.674-.45,6.481,6.481,0,0,1-.729-.762,5.031,5.031,0,0,1-.86.769m1.294.617a.6.6,0,0,1,.078.025c.047.017.07.064.07.142v1.1a.61.61,0,0,0,.085.341q.077.1.38.1h2.752q.318,0,.318.236t-.318.236h-3.519a1.184,1.184,0,0,1-.488-.13.532.532,0,0,1-.279-.537v-1.016a.268.268,0,0,0-.2-.254c-.134-.053-.233-.094-.294-.123-.088-.038-.119-.087-.093-.145a.112.112,0,0,1,.116-.08Zm2.527-3.539a.34.34,0,0,0-.209-.326l-.341-.167c-.073-.039-.1-.088-.074-.148s.061-.088.113-.083l1.379.145q.124.014.139.069a.333.333,0,0,1,.016.076v3.924a.61.61,0,0,1-.155.406.489.489,0,0,1-.387.181h-.287a.224.224,0,0,1-.147-.04.168.168,0,0,1-.046-.134v-2.045q-.264.007-.64.007h-.67a.147.147,0,0,1-.085-.022.622.622,0,0,1-.07-.058l-.256-.3a.269.269,0,0,1-.058-.127.127.127,0,0,1,.043-.12q.085-.08.263,0a.869.869,0,0,0,.341.076h1.132Z" transform="translate(-187.112 -184.131)" fill="#004187"></path>
    <path id="패스_76" data-name="패스 76" d="M305.467,238.619a5.149,5.149,0,0,1-.981.732.246.246,0,0,1-.283,0q-.12-.09.066-.265a5.969,5.969,0,0,0,1.255-1.712,4.445,4.445,0,0,0,.535-1.7q.007-.181-.291-.312a2.611,2.611,0,0,0-.376-.145.115.115,0,0,1-.077-.134q.008-.1.132-.1l1.666.1c.1,0,.164.04.182.105a.505.505,0,0,1,.012.207,4.015,4.015,0,0,1-.229.878,5.549,5.549,0,0,1-.407.841l.008.007a3.332,3.332,0,0,0,.353.326,2.958,2.958,0,0,0,.43.3,1.22,1.22,0,0,0,.352.149.4.4,0,0,1,.236.149,2.213,2.213,0,0,1,.427.649q.116.3-.023.446a.394.394,0,0,1-.275.1.64.64,0,0,1-.384-.131,4.3,4.3,0,0,1-.767-.718,9.578,9.578,0,0,1-.651-.805l-.008-.007a6.566,6.566,0,0,1-.9,1.037m4.708,2.314a.49.49,0,0,1-.388.181h-.295a.223.223,0,0,1-.147-.04.169.169,0,0,1-.047-.134v-5.773a.34.34,0,0,0-.209-.326l-.341-.167q-.109-.058-.074-.148c.023-.061.061-.088.112-.083l1.387.145q.124.014.139.069a.333.333,0,0,1,.016.076v5.795a.611.611,0,0,1-.155.406" transform="translate(-234.409 -184.131)" fill="#004187"></path>
  </g>
</svg>
